<mxfile host="app.diagrams.net" modified="2024-02-10T06:54:37.404Z" agent="Mozilla/5.0 (X11; Linux x86_64; rv:121.0) Gecko/20100101 Firefox/121.0" etag="JOAr17vJfkwMpbl6u_dD" version="23.1.2" type="device">
  <diagram name="Page-1" id="EpbLw81pfZR_4K67WDe2">
    <mxGraphModel dx="2037" dy="778" grid="1" gridSize="10" guides="1" tooltips="1" connect="1" arrows="1" fold="1" page="1" pageScale="1" pageWidth="850" pageHeight="1100" math="0" shadow="0">
      <root>
        <mxCell id="0" />
        <mxCell id="1" parent="0" />
        <mxCell id="9H8_Xh9Tizi_idlLj5gi-8" style="edgeStyle=orthogonalEdgeStyle;rounded=0;orthogonalLoop=1;jettySize=auto;html=1;exitX=0.5;exitY=1;exitDx=0;exitDy=0;" edge="1" parent="1" source="9H8_Xh9Tizi_idlLj5gi-1" target="9H8_Xh9Tizi_idlLj5gi-2">
          <mxGeometry relative="1" as="geometry" />
        </mxCell>
        <mxCell id="9H8_Xh9Tizi_idlLj5gi-1" value="Start Game" style="rounded=0;whiteSpace=wrap;html=1;" vertex="1" parent="1">
          <mxGeometry x="210" y="100" width="180" height="40" as="geometry" />
        </mxCell>
        <mxCell id="9H8_Xh9Tizi_idlLj5gi-22" style="edgeStyle=orthogonalEdgeStyle;rounded=0;orthogonalLoop=1;jettySize=auto;html=1;exitX=0.5;exitY=1;exitDx=0;exitDy=0;" edge="1" parent="1" source="9H8_Xh9Tizi_idlLj5gi-2" target="9H8_Xh9Tizi_idlLj5gi-21">
          <mxGeometry relative="1" as="geometry" />
        </mxCell>
        <mxCell id="9H8_Xh9Tizi_idlLj5gi-2" value="&lt;div&gt;POST /challenges&lt;/div&gt;&lt;div&gt;response: challenge_id, image&lt;br&gt;&lt;/div&gt;" style="rounded=0;whiteSpace=wrap;html=1;fillColor=#dae8fc;strokeColor=#6c8ebf;" vertex="1" parent="1">
          <mxGeometry x="210" y="160" width="180" height="60" as="geometry" />
        </mxCell>
        <mxCell id="9H8_Xh9Tizi_idlLj5gi-25" style="edgeStyle=orthogonalEdgeStyle;rounded=0;orthogonalLoop=1;jettySize=auto;html=1;exitX=0.5;exitY=1;exitDx=0;exitDy=0;" edge="1" parent="1" source="9H8_Xh9Tizi_idlLj5gi-3" target="9H8_Xh9Tizi_idlLj5gi-24">
          <mxGeometry relative="1" as="geometry" />
        </mxCell>
        <mxCell id="9H8_Xh9Tizi_idlLj5gi-3" value="&lt;div&gt;POST /challenges/{challenge_id}&lt;/div&gt;&lt;div&gt;request: her2_score&lt;/div&gt;&lt;div&gt;response: correct&lt;br&gt;&lt;/div&gt;" style="rounded=0;whiteSpace=wrap;html=1;fillColor=#dae8fc;strokeColor=#6c8ebf;" vertex="1" parent="1">
          <mxGeometry x="210" y="320" width="180" height="70" as="geometry" />
        </mxCell>
        <mxCell id="9H8_Xh9Tizi_idlLj5gi-9" value="When the player gets a slide wrong, do we want to give them another try? Or give them a new slide" style="text;html=1;strokeColor=none;fillColor=none;spacing=5;spacingTop=-20;whiteSpace=wrap;overflow=hidden;rounded=0;" vertex="1" parent="1">
          <mxGeometry x="600" y="370" width="190" height="50" as="geometry" />
        </mxCell>
        <mxCell id="9H8_Xh9Tizi_idlLj5gi-27" style="edgeStyle=orthogonalEdgeStyle;rounded=0;orthogonalLoop=1;jettySize=auto;html=1;exitX=1;exitY=0.5;exitDx=0;exitDy=0;entryX=1;entryY=0.5;entryDx=0;entryDy=0;" edge="1" parent="1" source="9H8_Xh9Tizi_idlLj5gi-12" target="9H8_Xh9Tizi_idlLj5gi-21">
          <mxGeometry relative="1" as="geometry" />
        </mxCell>
        <mxCell id="9H8_Xh9Tizi_idlLj5gi-12" value="&lt;div&gt;POST /challenges&lt;/div&gt;&lt;div&gt;request: previous_challenge_id&lt;/div&gt;&lt;div&gt;response: challenge_id, image&lt;br&gt;&lt;/div&gt;" style="rounded=0;whiteSpace=wrap;html=1;fillColor=#dae8fc;strokeColor=#6c8ebf;" vertex="1" parent="1">
          <mxGeometry x="210" y="490" width="180" height="60" as="geometry" />
        </mxCell>
        <mxCell id="9H8_Xh9Tizi_idlLj5gi-23" style="edgeStyle=orthogonalEdgeStyle;rounded=0;orthogonalLoop=1;jettySize=auto;html=1;exitX=0.5;exitY=1;exitDx=0;exitDy=0;" edge="1" parent="1" source="9H8_Xh9Tizi_idlLj5gi-21" target="9H8_Xh9Tizi_idlLj5gi-3">
          <mxGeometry relative="1" as="geometry" />
        </mxCell>
        <mxCell id="9H8_Xh9Tizi_idlLj5gi-21" value="Present image to user, user guesses HER2 score" style="rounded=0;whiteSpace=wrap;html=1;" vertex="1" parent="1">
          <mxGeometry x="210" y="240" width="180" height="60" as="geometry" />
        </mxCell>
        <mxCell id="9H8_Xh9Tizi_idlLj5gi-26" style="edgeStyle=orthogonalEdgeStyle;rounded=0;orthogonalLoop=1;jettySize=auto;html=1;exitX=0.5;exitY=1;exitDx=0;exitDy=0;" edge="1" parent="1" source="9H8_Xh9Tizi_idlLj5gi-24" target="9H8_Xh9Tizi_idlLj5gi-12">
          <mxGeometry relative="1" as="geometry" />
        </mxCell>
        <mxCell id="9H8_Xh9Tizi_idlLj5gi-24" value="Display correct/incorrect to user" style="rounded=0;whiteSpace=wrap;html=1;" vertex="1" parent="1">
          <mxGeometry x="210" y="410" width="180" height="60" as="geometry" />
        </mxCell>
      </root>
    </mxGraphModel>
  </diagram>
</mxfile>
